<svg width="38.544067" height="34.443604" viewBox="0 0 38.5441 34.4436" fill="none" xmlns="http://www.w3.org/2000/svg" xmlns:xlink="http://www.w3.org/1999/xlink">
	<desc>
			Created with Pixso.
	</desc>
	<defs/>
	<path id="Vector" d="M38.39 16.24L29.73 0.97C29.35 0.39 28.77 0 28 0L10.68 0C9.91 0 9.33 0.39 8.95 0.97L0.28 16.24C-0.1 16.83 -0.1 17.61 0.28 18.2L8.95 33.46C9.33 34.05 9.91 34.44 10.68 34.44L28 34.44C28.77 34.44 29.35 34.05 29.73 33.46L38.39 18.2C38.59 17.61 38.59 16.83 38.39 16.24Z" fill="#0872BF" fill-opacity="1.000000" fill-rule="nonzero"/>
	<path id="Instagram Black" d="M26 8.2L13.25 8.2C11.37 8.2 9.84 9.61 9.84 11.35L9.84 23.22C9.84 24.96 11.37 26.37 13.25 26.37L26 26.37C27.88 26.37 29.41 24.96 29.41 23.22L29.41 11.35C29.41 9.61 27.88 8.2 26 8.2ZM22.57 17.25C22.57 18.76 21.25 19.98 19.62 19.98C18 19.98 16.67 18.76 16.67 17.25C16.67 16.5 17 15.83 17.53 15.33L21.72 15.33C22.25 15.83 22.57 16.5 22.57 17.25ZM23.43 10.72L26.42 10.72L26.42 13.57L23.43 13.57L23.43 10.72ZM26 24.51L13.25 24.51C12.48 24.51 11.85 23.93 11.85 23.22L11.85 15.33L15.12 15.33C14.83 15.92 14.66 16.57 14.66 17.25C14.66 19.78 16.89 21.84 19.62 21.84C22.36 21.84 24.58 19.78 24.58 17.25C24.58 16.57 24.42 15.92 24.12 15.33L27.4 15.33L27.4 23.22C27.4 23.93 26.77 24.51 26 24.51Z" fill="#FFFFFF" fill-opacity="1.000000" fill-rule="nonzero"/>
	<path id="Instagram Black (Stroke)" d="" fill="#FFFFFF" fill-opacity="1.000000" fill-rule="nonzero"/>
</svg>
