<svg width="40.000000" height="42.305176" viewBox="0 0 40 42.3052" fill="none" xmlns="http://www.w3.org/2000/svg" xmlns:xlink="http://www.w3.org/1999/xlink">
	<desc>
			Created with Pixso.
	</desc>
	<defs/>
	<path d="M39.98 31.05L38.6 26.31C38.51 25.89 37.96 25.55 37.5 25.72C37.04 25.8 36.67 26.31 36.86 26.73L37.68 29.52L23.46 21.99C23.55 21.74 23.55 21.4 23.55 21.15C23.55 20.81 23.46 20.56 23.46 20.22L37.59 12.69L36.77 15.48C36.67 15.9 36.95 16.41 37.41 16.49C37.87 16.58 38.42 16.32 38.51 15.9L39.89 11.16C39.98 10.74 39.7 10.23 39.24 10.15L34.1 8.88C33.64 8.79 33.09 9.05 33 9.47C32.91 9.89 33.19 10.4 33.64 10.49L36.67 11.25L22.54 18.78C22.08 18.36 21.53 18.02 20.89 17.93L20.89 2.87L23.09 4.9C23.46 5.24 24.01 5.24 24.37 4.9C24.74 4.56 24.74 4.06 24.37 3.72L20.61 0.25C20.24 -0.09 19.69 -0.09 19.33 0.25L15.56 3.72C15.2 4.06 15.2 4.56 15.56 4.9C15.93 5.24 16.48 5.24 16.85 4.9L19.05 2.87L19.05 17.93C18.41 18.1 17.86 18.36 17.4 18.78L3.26 11.25L6.29 10.49C6.75 10.4 7.03 9.89 6.94 9.47C6.84 9.05 6.29 8.79 5.83 8.88L0.69 10.15C0.24 10.23 -0.04 10.74 0.05 11.16L1.43 15.9C1.52 16.32 2.07 16.58 2.53 16.49C2.99 16.41 3.36 15.9 3.17 15.48L2.35 12.69L16.48 20.3C16.39 20.56 16.39 20.89 16.39 21.15C16.39 21.49 16.39 21.74 16.48 21.99L2.35 29.52L3.17 26.73C3.26 26.31 2.99 25.8 2.53 25.72C2.07 25.63 1.52 25.89 1.43 26.31L0.05 31.05C-0.13 31.55 0.14 31.98 0.69 32.15L5.83 33.42C6.29 33.5 6.84 33.25 6.94 32.82C7.03 32.4 6.75 31.89 6.29 31.81L3.26 31.05L17.4 23.52C17.86 23.94 18.41 24.28 19.05 24.36L19.05 39.42L16.85 37.39C16.48 37.05 15.93 37.05 15.56 37.39C15.2 37.73 15.2 38.24 15.56 38.58L19.33 42.05C19.69 42.38 20.24 42.38 20.61 42.05L24.37 38.58C24.74 38.24 24.74 37.73 24.37 37.39C24.01 37.05 23.46 37.05 23.09 37.39L20.89 39.42L20.89 24.36C21.53 24.19 22.08 23.94 22.54 23.52L36.67 31.05L33.64 31.81C33.19 31.89 32.91 32.4 33 32.82C33.09 33.25 33.64 33.5 34.1 33.42L39.24 32.15C39.79 31.98 40.07 31.55 39.98 31.05ZM19.97 22.84C19.05 22.84 18.13 22.16 18.13 21.15C18.13 20.22 18.96 19.46 19.97 19.46C20.98 19.46 21.71 20.22 21.71 21.15C21.8 22.08 20.89 22.84 19.97 22.84Z" fill="#0872BF" fill-opacity="1.000000" fill-rule="nonzero"/>
	<path d="M9.78 11.67L15.75 15.99C16.02 16.24 16.48 16.24 16.76 16.07C17.12 15.9 17.21 15.56 17.21 15.23L16.11 8.29C16.11 8.12 15.93 7.86 15.75 7.78L13.91 6.34C13.54 6 12.9 6.09 12.63 6.43C12.26 6.76 12.35 7.36 12.72 7.61L14.28 8.79L15.01 13.28L11.16 10.49L10.79 8.63C10.7 8.2 10.24 7.86 9.78 7.95C9.32 8.03 8.95 8.46 9.05 8.88L9.41 11.08C9.51 11.42 9.6 11.59 9.78 11.67ZM3.72 22.16C3.26 21.99 2.71 22.25 2.53 22.67C2.35 23.09 2.62 23.6 3.08 23.77L5.37 24.53C5.47 24.53 5.56 24.62 5.74 24.62C5.83 24.62 6.02 24.62 6.11 24.53L13.18 21.91C13.54 21.74 13.73 21.49 13.73 21.15C13.73 20.81 13.54 20.47 13.18 20.39L6.02 17.76C5.83 17.68 5.56 17.68 5.37 17.76L3.08 18.53C2.62 18.69 2.35 19.2 2.53 19.62C2.71 20.05 3.26 20.3 3.72 20.13L5.65 19.46L10.24 21.15L5.65 22.84L3.72 22.16ZM16.21 34.01L17.21 27.07C17.31 26.73 17.12 26.39 16.76 26.22C16.39 26.06 16.02 26.06 15.75 26.31L9.78 30.62C9.6 30.79 9.51 30.96 9.41 31.13L9.05 33.33C8.95 33.75 9.32 34.26 9.78 34.26C10.24 34.35 10.79 34.01 10.79 33.59L11.16 31.72L15.01 28.93L14.28 33.42L12.72 34.6C12.35 34.94 12.26 35.45 12.63 35.79C12.99 36.12 13.54 36.21 13.91 35.87L15.75 34.43C16.02 34.43 16.11 34.18 16.21 34.01ZM30.16 30.62L24.19 26.22C23.55 25.8 22.63 26.31 22.72 26.99L23.82 33.92C23.82 34.09 24.01 34.35 24.19 34.43L26.03 35.87C26.39 36.21 27.04 36.12 27.31 35.79C27.68 35.45 27.59 34.85 27.22 34.6L25.66 33.42L24.92 28.93L28.78 31.72L29.15 33.59C29.24 34.09 29.7 34.35 30.16 34.26C30.62 34.18 30.98 33.75 30.89 33.33L30.52 31.13C30.43 30.88 30.34 30.71 30.16 30.62ZM36.21 20.13C36.67 20.3 37.22 20.05 37.41 19.62C37.59 19.2 37.32 18.69 36.86 18.53L34.56 17.76C34.38 17.68 34.1 17.68 33.92 17.76L26.85 20.39C26.49 20.56 26.3 20.81 26.3 21.15C26.3 21.49 26.49 21.82 26.85 21.91L33.92 24.53C34.1 24.62 34.38 24.62 34.56 24.53L36.86 23.77C37.32 23.6 37.59 23.09 37.41 22.67C37.22 22.25 36.67 21.99 36.21 22.16L34.29 22.84L29.7 21.15L34.29 19.46L36.21 20.13ZM23.73 8.29L22.72 15.23C22.63 15.56 22.81 15.9 23.18 16.07C23.46 16.24 23.92 16.24 24.19 15.99L30.16 11.67C30.34 11.5 30.43 11.33 30.52 11.16L30.89 8.96C30.98 8.54 30.62 8.03 30.16 8.03C29.7 7.95 29.15 8.29 29.15 8.71L28.78 10.57L24.92 13.36L25.66 8.88L27.22 7.69C27.59 7.36 27.68 6.85 27.31 6.51C26.94 6.17 26.39 6.09 26.03 6.43L24.19 7.86C23.92 7.86 23.82 8.12 23.73 8.29Z" fill="#0872BF" fill-opacity="1.000000" fill-rule="nonzero"/>
</svg>
